<svg xmlns="http://www.w3.org/2000/svg" viewBox="0 0 120 90" fill="none">
  <!-- Cloud shape -->
  <path d="M30 62 Q20 62 18 54 Q10 54 10 46 Q10 36 22 36 Q22 22 38 22 Q52 18 62 30 Q78 26 84 38 Q98 38 98 48 Q98 58 86 58 Z" stroke="#9CA3AF" stroke-width="2.5" fill="#1F2937"/>
  <!-- Cloudflare logo hint -->
  <circle cx="58" cy="40" r="10" stroke="#6B7280" stroke-width="2" fill="none"/>
  <path d="M50 40 L58 40 M58 40 L66 40 M58 32 L58 48" stroke="#6B7280" stroke-width="1.5" stroke-linecap="round"/>
  <!-- Server rack below -->
  <rect x="36" y="66" width="48" height="16" rx="3" stroke="#6B7280" stroke-width="2" fill="#1F2937"/>
  <rect x="41" y="71" width="8" height="6" rx="1" fill="#4B5563"/>
  <rect x="52" y="71" width="8" height="6" rx="1" fill="#6B7280"/>
  <rect x="63" y="71" width="8" height="6" rx="1" fill="#4B5563"/>
  <rect x="74" y="71" width="6" height="6" rx="1" fill="#6B7280"/>
</svg>
